<svg width="16" height="10" viewBox="0 0 16 10" fill="none" xmlns="http://www.w3.org/2000/svg">
<path fill-rule="evenodd" clip-rule="evenodd" d="M0.513684 0.947904C0.762008 0.699655 1.09876 0.560196 1.44989 0.560196C1.80102 0.560196 2.13778 0.699654 2.3861 0.947904L8.07089 6.63269L13.7557 0.947903C14.0054 0.706689 14.3399 0.573218 14.6871 0.576235C15.0343 0.579252 15.3664 0.718516 15.612 0.964033C15.8575 1.20955 15.9967 1.54168 15.9998 1.88888C16.0028 2.23608 15.8693 2.57057 15.6281 2.82032L9.0071 9.44132C8.75877 9.68957 8.42202 9.82902 8.07089 9.82902C7.71976 9.82902 7.38301 9.68957 7.13468 9.44132L0.513684 2.82032C0.265435 2.572 0.125976 2.23524 0.125976 1.88411C0.125976 1.53298 0.265435 1.19623 0.513684 0.947904Z" fill="#5717BF"/>
</svg>
