<svg width="50" height="49" viewBox="0 0 50 49" fill="none" xmlns="http://www.w3.org/2000/svg">
<circle cx="25" cy="24.3629" r="24.1392" fill="#5717BF"/>
<path d="M37.0142 23.1065H34.8298V20.9221H32.6454V23.1065H30.461V25.2909H32.6454V27.4753H34.8298V25.2909H37.0142M20.6312 23.1065V25.7278H25C24.7816 26.82 23.6894 29.0044 20.6312 29.0044C18.0099 29.0044 15.9348 26.82 15.9348 24.1987C15.9348 21.5774 18.0099 19.3931 20.6312 19.3931C22.1603 19.3931 23.1433 20.0484 23.6894 20.5945L25.7645 18.6285C24.4539 17.3179 22.7064 16.5533 20.6312 16.5533C16.3716 16.5533 12.9858 19.9392 12.9858 24.1987C12.9858 28.4583 16.3716 31.8441 20.6312 31.8441C25 31.8441 27.9489 28.7859 27.9489 24.4172C27.9489 23.8711 27.9489 23.5434 27.8397 23.1065H20.6312Z" fill="white"/>
</svg>
