<svg width="49" height="49" viewBox="0 0 49 49" fill="none" xmlns="http://www.w3.org/2000/svg">
<circle cx="24.2783" cy="24.3629" r="24.1392" fill="#5717BF"/>
<path d="M18.7483 15.1987C18.748 15.7292 18.5371 16.2378 18.1618 16.6126C17.7865 16.9875 17.2777 17.198 16.7473 17.1977C16.2169 17.1975 15.7083 16.9865 15.3334 16.6112C14.9585 16.236 14.748 15.7272 14.7483 15.1967C14.7486 14.6663 14.9595 14.1577 15.3348 13.7828C15.71 13.4079 16.2189 13.1975 16.7493 13.1977C17.2797 13.198 17.7883 13.409 18.1632 13.7842C18.5381 14.1595 18.7486 14.6683 18.7483 15.1987ZM18.8083 18.6787H14.8083V31.1987H18.8083V18.6787ZM25.1283 18.6787H21.1483V31.1987H25.0883V24.6287C25.0883 20.9687 29.8583 20.6287 29.8583 24.6287V31.1987H33.8083V23.2687C33.8083 17.0987 26.7483 17.3287 25.0883 20.3587L25.1283 18.6787Z" fill="white"/>
</svg>
