<svg width="11" height="15" viewBox="0 0 11 15" fill="none" xmlns="http://www.w3.org/2000/svg">
<path d="M5.21737 10.803C4.87315 10.803 4.54303 10.6663 4.29963 10.4229C4.05623 10.1795 3.91949 9.84936 3.91949 9.50515C3.91949 8.78483 4.49705 8.20728 5.21737 8.20728C5.56158 8.20728 5.8917 8.34402 6.1351 8.58741C6.3785 8.83081 6.51524 9.16093 6.51524 9.50515C6.51524 9.84936 6.3785 10.1795 6.1351 10.4229C5.8917 10.6663 5.56158 10.803 5.21737 10.803ZM9.11098 12.7498V6.26047H1.32375V12.7498H9.11098ZM9.11098 4.9626C9.4552 4.9626 9.78532 5.09934 10.0287 5.34273C10.2721 5.58613 10.4089 5.91625 10.4089 6.26047V12.7498C10.4089 13.094 10.2721 13.4242 10.0287 13.6676C9.78532 13.911 9.4552 14.0477 9.11098 14.0477H1.32375C0.979534 14.0477 0.649415 13.911 0.406017 13.6676C0.162619 13.4242 0.0258789 13.094 0.0258789 12.7498V6.26047C0.0258789 5.54015 0.603432 4.9626 1.32375 4.9626H1.97269V3.66472C1.97269 2.80418 2.31454 1.97888 2.92303 1.37039C3.53153 0.761893 4.35682 0.420044 5.21737 0.420044C5.64346 0.420044 6.06539 0.50397 6.45905 0.667031C6.85271 0.830091 7.21041 1.06909 7.5117 1.37039C7.813 1.67169 8.052 2.02938 8.21506 2.42304C8.37812 2.8167 8.46205 3.23863 8.46205 3.66472V4.9626H9.11098ZM5.21737 1.71792C4.70104 1.71792 4.20586 1.92303 3.84077 2.28812C3.47567 2.65322 3.27056 3.1484 3.27056 3.66472V4.9626H7.16417V3.66472C7.16417 3.1484 6.95907 2.65322 6.59397 2.28812C6.22887 1.92303 5.73369 1.71792 5.21737 1.71792Z" fill="#5717BF"/>
</svg>
