<svg width="16" height="15" viewBox="0 0 16 15" fill="none" xmlns="http://www.w3.org/2000/svg">
<path d="M16.0021 5.46105C16.0025 5.24384 15.9453 5.03041 15.8364 4.84247C15.7275 4.65453 15.5708 4.49878 15.3821 4.39105L8.64213 0.391052C8.44788 0.27772 8.22703 0.218002 8.00213 0.218002C7.77724 0.218002 7.55638 0.27772 7.36213 0.391052L0.612132 4.39105C0.425604 4.50173 0.271085 4.65904 0.16376 4.84752C0.0564356 5.036 0 5.24916 0 5.46605C0 5.68295 0.0564356 5.89611 0.16376 6.08459C0.271085 6.27306 0.425604 6.43037 0.612132 6.54105L2.53213 7.66105V10.4711C2.53329 10.6907 2.59093 10.9063 2.69951 11.0972C2.80809 11.2881 2.96396 11.4478 3.15213 11.5611L7.40213 14.0111C7.59189 14.1161 7.80523 14.1712 8.02213 14.1712C8.23903 14.1712 8.45238 14.1161 8.64213 14.0111L12.8921 11.5611C13.0803 11.4478 13.2362 11.2881 13.3448 11.0972C13.4533 10.9063 13.511 10.6907 13.5121 10.4711V7.63105L14.7521 6.90105V9.62105H16.0021V5.46105ZM12.2721 10.4611L8.00213 12.9211L3.78213 10.4711V8.40105L7.36213 10.5311C7.55704 10.6424 7.77765 10.701 8.00213 10.701C8.22662 10.701 8.44722 10.6424 8.64213 10.5311L12.2621 8.37105L12.2721 10.4611ZM8.00213 9.45105L1.25213 5.45105L8.00213 1.44105L14.7521 5.44105L8.00213 9.45105Z" fill="#5717BF"/>
</svg>
