<svg width="16" height="15" viewBox="0 0 16 15" fill="none" xmlns="http://www.w3.org/2000/svg">
<path d="M15.0423 13.2609C14.1327 11.6645 12.7125 10.4207 11.0101 9.72959C11.8567 9.09467 12.482 8.20948 12.7975 7.19941C13.1131 6.18934 13.1028 5.1056 12.7681 4.1017C12.4335 3.0978 11.7915 2.22464 10.933 1.6059C10.0746 0.987158 9.04319 0.654205 7.98499 0.654205C6.92679 0.654205 5.89541 0.987158 5.03695 1.6059C4.17849 2.22464 3.53648 3.0978 3.20184 4.1017C2.86721 5.1056 2.85693 6.18934 3.17245 7.19941C3.48797 8.20948 4.1133 9.09467 4.95986 9.72959C3.25751 10.4207 1.83724 11.6645 0.927687 13.2609C0.871327 13.3515 0.833764 13.4525 0.81723 13.558C0.800696 13.6634 0.805528 13.7711 0.831441 13.8746C0.857353 13.9781 0.903815 14.0754 0.968067 14.1606C1.03232 14.2458 1.11305 14.3172 1.20545 14.3706C1.29786 14.424 1.40005 14.4583 1.50596 14.4714C1.61187 14.4845 1.71934 14.4762 1.82197 14.4469C1.9246 14.4176 2.0203 14.368 2.10338 14.3011C2.18646 14.2341 2.25522 14.1511 2.30558 14.057C3.50767 11.9792 5.63057 10.74 7.98499 10.74C10.3394 10.74 12.4623 11.9799 13.6644 14.057C13.7735 14.2325 13.9466 14.3586 14.1471 14.4088C14.3476 14.459 14.5597 14.4292 14.7387 14.3259C14.9176 14.2225 15.0493 14.0536 15.106 13.8548C15.1627 13.6561 15.1398 13.4431 15.0423 13.2609ZM4.53528 5.69807C4.53528 5.01579 4.73761 4.34882 5.11666 3.78152C5.49572 3.21422 6.03449 2.77206 6.66484 2.51096C7.2952 2.24986 7.98882 2.18155 8.65799 2.31465C9.32717 2.44776 9.94185 2.77631 10.4243 3.25876C10.9067 3.74121 11.2353 4.35589 11.3684 5.02507C11.5015 5.69425 11.4332 6.38787 11.1721 7.01822C10.911 7.64857 10.4688 8.18734 9.90154 8.5664C9.33424 8.94546 8.66728 9.14778 7.98499 9.14778C7.07039 9.14673 6.19356 8.78294 5.54684 8.13622C4.90013 7.4895 4.53634 6.61267 4.53528 5.69807Z" fill="#5717BF"/>
</svg>
