<svg width="33" height="33" viewBox="0 0 33 33" fill="none" xmlns="http://www.w3.org/2000/svg">
<path d="M16.3432 0.0894775C13.109 0.0894775 9.94746 1.04853 7.25832 2.84536C4.56918 4.64218 2.47325 7.19608 1.23557 10.1841C-0.00210057 13.1721 -0.325933 16.46 0.305029 19.6321C0.93599 22.8041 2.49341 25.7179 4.78033 28.0048C7.06726 30.2917 9.98098 31.8491 13.153 32.4801C16.3251 33.1111 19.613 32.7872 22.601 31.5496C25.589 30.3119 28.1429 28.2159 29.9398 25.5268C31.7366 22.8377 32.6956 19.6761 32.6956 16.4419C32.6956 12.105 30.9728 7.94566 27.9061 4.87899C24.8395 1.81232 20.6802 0.0894775 16.3432 0.0894775ZM14.0072 22.9712L8.16703 17.131L10.0242 15.2739L14.0072 19.2568L22.6623 10.6017L24.5265 12.4542L14.0072 22.9712Z" fill="#5717BF"/>
</svg>
