<svg width="25" height="24" viewBox="0 0 25 24" fill="none" xmlns="http://www.w3.org/2000/svg">
<path d="M8.68491 12.07C8.68491 9.94463 10.4074 8.22124 12.5327 8.22124C14.658 8.22124 16.3814 9.94463 16.3814 12.07C16.3814 14.1953 14.658 15.9187 12.5327 15.9187C10.4074 15.9187 8.68491 14.1953 8.68491 12.07ZM6.60436 12.07C6.60436 15.3442 9.25847 17.9983 12.5327 17.9983C15.8069 17.9983 18.4611 15.3442 18.4611 12.07C18.4611 8.79574 15.8069 6.14162 12.5327 6.14162C9.25847 6.14162 6.60445 8.79555 6.60445 12.07M17.3104 5.90656C17.3103 6.18057 17.3914 6.44846 17.5436 6.67636C17.6957 6.90425 17.912 7.08191 18.1651 7.18687C18.4183 7.29183 18.6968 7.31938 18.9656 7.26603C19.2343 7.21268 19.4813 7.08083 19.6751 6.88715C19.8689 6.69347 20.001 6.44667 20.0545 6.17794C20.1081 5.90922 20.0808 5.63064 19.976 5.37745C19.8713 5.12425 19.6938 4.9078 19.466 4.75548C19.2382 4.60316 18.9704 4.52179 18.6964 4.52168H18.6958C18.3285 4.52186 17.9763 4.6678 17.7166 4.92746C17.4568 5.18712 17.3107 5.53927 17.3104 5.90656ZM7.86843 21.4676C6.74281 21.4164 6.131 21.2289 5.72443 21.0705C5.1854 20.8606 4.80081 20.6107 4.39645 20.2069C3.99209 19.8031 3.74178 19.4188 3.53286 18.8798C3.37437 18.4734 3.18687 17.8614 3.1357 16.7358C3.07973 15.5189 3.06856 15.1533 3.06856 12.0702C3.06856 8.98702 3.08066 8.62246 3.1357 7.40449C3.18697 6.27887 3.37585 5.66808 3.53286 5.26049C3.74271 4.72146 3.99264 4.33687 4.39645 3.93251C4.80025 3.52815 5.18448 3.27785 5.72443 3.06892C6.13082 2.91043 6.74281 2.72293 7.86843 2.67177C9.08539 2.61579 9.45096 2.60462 12.5327 2.60462C15.6145 2.60462 15.9804 2.61653 17.1984 2.67195C18.324 2.72321 18.9348 2.91209 19.3424 3.06911C19.8814 3.27803 20.266 3.52889 20.6704 3.93269C21.0747 4.3365 21.3241 4.72165 21.5339 5.26067C21.6924 5.66707 21.8799 6.27906 21.9311 7.40467C21.9871 8.62265 21.9982 8.9872 21.9982 12.0703C21.9982 15.1535 21.9871 15.518 21.9311 16.736C21.8798 17.8616 21.6914 18.4734 21.5339 18.88C21.3241 19.419 21.0742 19.8036 20.6704 20.2071C20.2665 20.6105 19.8814 20.8608 19.3424 21.0706C18.936 21.2291 18.324 21.4166 17.1984 21.4678C15.9814 21.5238 15.6158 21.5349 12.5327 21.5349C9.44957 21.5349 9.08502 21.5238 7.86843 21.4678M7.77283 0.594637C6.54377 0.650609 5.70392 0.845492 4.97048 1.13089C4.21135 1.42562 3.56787 1.82102 2.9253 2.46257C2.28274 3.10411 1.88836 3.74769 1.59363 4.50774C1.30823 5.24165 1.11335 6.08103 1.05738 7.31009C1.00048 8.54109 0.987457 8.93465 0.987457 12.07C0.987457 15.2053 1.00048 15.5988 1.05738 16.8298C1.11335 18.059 1.30823 18.8983 1.59363 19.6322C1.88836 20.3913 2.28283 21.0361 2.9253 21.6774C3.56777 22.3186 4.21043 22.7135 4.97048 23.009C5.70531 23.2944 6.54377 23.4893 7.77283 23.5453C9.00448 23.6013 9.39739 23.6152 12.5327 23.6152C15.668 23.6152 16.0616 23.6022 17.2926 23.5453C18.5217 23.4893 19.361 23.2944 20.0949 23.009C20.8541 22.7135 21.4975 22.3189 22.1401 21.6774C22.7827 21.0358 23.1762 20.3913 23.4718 19.6322C23.7572 18.8983 23.953 18.0589 24.008 16.8298C24.064 15.5979 24.077 15.2053 24.077 12.07C24.077 8.93465 24.064 8.54109 24.008 7.31009C23.9521 6.08094 23.7572 5.24118 23.4718 4.50774C23.1762 3.74861 22.7817 3.10513 22.1401 2.46257C21.4986 1.82 20.8541 1.42562 20.0959 1.13089C19.361 0.845492 18.5216 0.649685 17.2935 0.594637C16.0623 0.538389 15.669 0.524719 12.5341 0.524719C9.39923 0.524719 9.00494 0.537742 7.77329 0.594637" fill="white"/>
</svg>
