<svg width="130" height="30" viewBox="0 0 130 30" fill="none" xmlns="http://www.w3.org/2000/svg">
<path d="M20.346 18.938C20.346 22.344 19.462 24.931 17.694 26.699C15.926 28.467 13.495 29.351 10.401 29.351C7.30704 29.351 4.87604 28.493 3.10804 26.777C1.34004 25.035 0.456042 22.526 0.456042 19.25V2.714H4.47304V19.211C4.47304 21.447 5.00604 23.085 6.07204 24.125C7.16404 25.139 8.59404 25.646 10.362 25.646C14.34 25.646 16.329 23.436 16.329 19.016V2.714H20.346V18.938ZM42.1604 29H38.3384V16.52C38.3384 15.142 37.9874 14.089 37.2854 13.361C36.6094 12.633 35.6474 12.269 34.3994 12.269C33.1514 12.269 32.0464 12.802 31.0844 13.868C30.1224 14.908 29.6414 16.377 29.6414 18.275V29H25.8194V9.227H29.6414V12.62C30.8114 10.176 32.8654 8.954 35.8034 8.954C37.7534 8.954 39.3004 9.552 40.4444 10.748C41.5884 11.944 42.1604 13.569 42.1604 15.623V29ZM49.3669 0.763999C50.0429 0.763999 50.6149 0.997999 51.0829 1.466C51.5509 1.934 51.7849 2.506 51.7849 3.182C51.7849 3.832 51.5509 4.391 51.0829 4.859C50.6149 5.327 50.0429 5.561 49.3669 5.561C48.6909 5.561 48.1189 5.34 47.6509 4.898C47.2089 4.43 46.9879 3.858 46.9879 3.182C46.9879 2.506 47.2089 1.934 47.6509 1.466C48.1189 0.997999 48.6909 0.763999 49.3669 0.763999ZM51.3169 29H47.4559V9.227H51.3169V29ZM70.5875 18.041H61.0325V29H57.0155V2.714H71.9135V6.068H61.0325V14.687H70.5875V18.041ZM81.318 29.156C79.446 29.156 77.938 28.623 76.794 27.557C75.676 26.465 75.117 25.035 75.117 23.267C75.117 21.473 75.832 20.056 77.262 19.016C78.692 17.95 80.694 17.417 83.268 17.417H86.544V16.286C86.544 14.934 86.219 13.92 85.569 13.244C84.919 12.542 83.84 12.191 82.332 12.191C80.226 12.191 78.315 12.776 76.599 13.946V10.241C78.133 9.357 80.161 8.915 82.683 8.915C87.857 8.915 90.444 11.424 90.444 16.442V29H86.661V26.66C85.647 28.324 83.866 29.156 81.318 29.156ZM79.173 23.267C79.173 24.151 79.459 24.853 80.031 25.373C80.603 25.893 81.474 26.153 82.644 26.153C83.814 26.153 84.75 25.815 85.452 25.139C86.18 24.437 86.544 23.527 86.544 22.409V20.186H83.58C82.124 20.186 81.019 20.472 80.265 21.044C79.537 21.616 79.173 22.357 79.173 23.267ZM111.934 29H108.112V16.52C108.112 15.142 107.761 14.089 107.059 13.361C106.383 12.633 105.421 12.269 104.173 12.269C102.925 12.269 101.82 12.802 100.858 13.868C99.8959 14.908 99.4149 16.377 99.4149 18.275V29H95.5929V9.227H99.4149V12.62C100.585 10.176 102.639 8.954 105.577 8.954C107.527 8.954 109.074 9.552 110.218 10.748C111.362 11.944 111.934 13.569 111.934 15.623V29ZM125.263 18.236C126.303 18.678 127.252 19.328 128.11 20.186C128.994 21.018 129.436 22.227 129.436 23.813C129.436 25.399 128.812 26.699 127.564 27.713C126.316 28.701 124.574 29.195 122.338 29.195C120.102 29.195 118.204 28.805 116.644 28.025V24.398C118.464 25.516 120.349 26.075 122.299 26.075C123.313 26.075 124.093 25.867 124.639 25.451C125.211 25.035 125.497 24.515 125.497 23.891C125.497 23.267 125.276 22.734 124.834 22.292C124.392 21.824 123.937 21.486 123.469 21.278C123.027 21.044 122.26 20.693 121.168 20.225C118.074 18.951 116.527 17.079 116.527 14.609C116.527 12.867 117.177 11.502 118.477 10.514C119.777 9.526 121.441 9.032 123.469 9.032C125.523 9.032 127.148 9.318 128.344 9.89V13.361C127.07 12.607 125.432 12.23 123.43 12.23C122.52 12.23 121.792 12.438 121.246 12.854C120.726 13.27 120.466 13.816 120.466 14.492C120.466 15.298 120.804 15.909 121.48 16.325C121.688 16.455 121.844 16.572 121.948 16.676C122.078 16.754 122.273 16.858 122.533 16.988C122.819 17.118 123.027 17.222 123.157 17.3C123.547 17.482 124.249 17.794 125.263 18.236Z" fill="url(#paint0_linear_1_2)"/>
<defs>
<linearGradient id="paint0_linear_1_2" x1="10.187" y1="2.99998" x2="137.187" y2="29" gradientUnits="userSpaceOnUse">
<stop stop-color="#4468E7"/>
<stop offset="1" stop-color="#5717BF"/>
</linearGradient>
</defs>
</svg>
