<svg width="20" height="21" viewBox="0 0 20 21" fill="none" xmlns="http://www.w3.org/2000/svg">
<path d="M19.0002 19.5134L14.6572 15.1704M14.6572 15.1704C15.4001 14.4275 15.9894 13.5456 16.3914 12.575C16.7935 11.6043 17.0004 10.564 17.0004 9.5134C17.0004 8.4628 16.7935 7.42249 16.3914 6.45186C15.9894 5.48123 15.4001 4.59929 14.6572 3.85641C13.9143 3.11352 13.0324 2.52423 12.0618 2.12218C11.0911 1.72013 10.0508 1.5132 9.00021 1.5132C7.9496 1.5132 6.90929 1.72013 5.93866 2.12218C4.96803 2.52423 4.08609 3.11352 3.34321 3.85641C1.84288 5.35673 1 7.39162 1 9.5134C1 11.6352 1.84288 13.6701 3.34321 15.1704C4.84354 16.6707 6.87842 17.5136 9.00021 17.5136C11.122 17.5136 13.1569 16.6707 14.6572 15.1704Z" stroke="#5717BF" stroke-width="2" stroke-linecap="round" stroke-linejoin="round"/>
</svg>
