<svg width="19" height="16" viewBox="0 0 19 16" fill="none" xmlns="http://www.w3.org/2000/svg">
<path d="M18.2232 2.63213C17.5574 2.9274 16.8411 3.12711 16.0899 3.2163C16.8569 2.75678 17.4455 2.02969 17.7233 1.16189C17.0056 1.58762 16.2104 1.89646 15.3647 2.06293C14.6872 1.34138 13.7219 0.890442 12.653 0.890442C10.6022 0.890442 8.93893 2.55375 8.93893 4.60455C8.93893 4.89566 8.97189 5.17902 9.0356 5.45102C5.94886 5.29619 3.21196 3.81763 1.37998 1.56989C1.06033 2.11832 0.876968 2.75678 0.876968 3.43733C0.876968 4.72559 1.53315 5.8629 2.52919 6.52878C1.92065 6.50966 1.34757 6.34264 0.847054 6.06372C0.846777 6.0795 0.846776 6.09529 0.846776 6.1108C0.846776 7.91038 2.12756 9.41137 3.82632 9.75234C3.51499 9.83766 3.1862 9.8828 2.848 9.8828C2.60813 9.8828 2.37574 9.85981 2.14917 9.8166C2.62171 11.2918 3.99306 12.3657 5.6187 12.3959C4.34733 13.3922 2.74607 13.9858 1.00549 13.9858C0.706344 13.9858 0.409969 13.9684 0.119965 13.9337C1.76277 14.9879 3.71552 15.6026 5.81286 15.6026C12.6445 15.6026 16.3804 9.94319 16.3804 5.03471C16.3804 4.87378 16.3768 4.71341 16.3696 4.55442C17.0959 4.03091 17.7255 3.37695 18.2232 2.63213Z" fill="#F1F2F2"/>
</svg>
